<svg width="67" height="66" viewBox="0 0 67 66" fill="none" xmlns="http://www.w3.org/2000/svg">
<path d="M33.5 0V1.69" stroke="#BFBFBF"/>
<path d="M39.231 0.500977L38.9371 2.16757" stroke="#F0F0F0"/>
<path d="M44.7861 1.98926L44.2073 3.57951" stroke="#F0F0F0"/>
<path d="M50 4.4209L49.1538 5.88648" stroke="#BFBFBF"/>
<path d="M54.7119 7.7207L53.6241 9.01709" stroke="#F0F0F0"/>
<path d="M58.7793 11.7881L57.4829 12.8759" stroke="#F0F0F0"/>
<path d="M62.0781 16.499L60.6125 17.3452" stroke="#BFBFBF"/>
<path d="M64.5103 21.7129L62.92 22.2917" stroke="#F0F0F0"/>
<path d="M65.9985 27.2695L64.3319 27.5634" stroke="#F0F0F0"/>
<path d="M66.5 33H64.8077" stroke="#BFBFBF"/>
<path d="M65.9985 38.7305L64.3319 38.4366" stroke="#F0F0F0"/>
<path d="M64.5098 44.2861L62.9195 43.7073" stroke="#F0F0F0"/>
<path d="M62.0786 49.499L60.613 48.6529" stroke="#BFBFBF"/>
<path d="M58.7793 54.2119L57.4829 53.1241" stroke="#F0F0F0"/>
<path d="M54.7129 58.2793L53.6251 56.9829" stroke="#F0F0F0"/>
<path d="M50 61.5781L49.1538 60.1125" stroke="#BFBFBF"/>
<path d="M44.7866 64.0098L44.2078 62.4195" stroke="#F0F0F0"/>
<path d="M39.2295 65.498L38.9356 63.8314" stroke="#F0F0F0"/>
<path d="M33.5 66V64.3077" stroke="#BFBFBF"/>
<path d="M27.769 65.499L28.0629 63.8324" stroke="#F0F0F0"/>
<path d="M22.2139 64.0107L22.7927 62.4205" stroke="#F0F0F0"/>
<path d="M17 61.5791L17.8462 60.1135" stroke="#BFBFBF"/>
<path d="M12.2881 58.2793L13.3759 56.9829" stroke="#F0F0F0"/>
<path d="M8.2207 54.2119L9.51709 53.1241" stroke="#F0F0F0"/>
<path d="M4.92188 49.501L6.38746 48.6548" stroke="#BFBFBF"/>
<path d="M2.48975 44.2871L4.08 43.7083" stroke="#F0F0F0"/>
<path d="M1.00146 38.7305L2.66806 38.4366" stroke="#F0F0F0"/>
<path d="M0.5 33H2.19231" stroke="#BFBFBF"/>
<path d="M1.00146 27.2695L2.66806 27.5634" stroke="#F0F0F0"/>
<path d="M2.49023 21.7139L4.08048 22.2927" stroke="#F0F0F0"/>
<path d="M4.92139 16.501L6.38697 17.3471" stroke="#BFBFBF"/>
<path d="M8.2207 11.7881L9.51709 12.8759" stroke="#F0F0F0"/>
<path d="M12.2871 7.7207L13.3749 9.01709" stroke="#F0F0F0"/>
<path d="M17 4.42188L17.8462 5.88746" stroke="#BFBFBF"/>
<path d="M22.2134 1.99023L22.7922 3.58048" stroke="#F0F0F0"/>
<path d="M27.7705 0.501953L28.0644 2.16855" stroke="#F0F0F0"/>
</svg>
